<svg width="135" height="35" viewBox="0 0 135 35" fill="none" xmlns="http://www.w3.org/2000/svg">
<g filter="url(#filter0_d_55_25435)">
<path d="M13.3253 6.09091H16.723V19.3864C16.7169 20.6051 16.4583 21.6546 15.9474 22.5348C15.4366 23.4089 14.7225 24.0829 13.8054 24.5568C12.8944 25.0246 11.8326 25.2585 10.62 25.2585C9.51207 25.2585 8.51491 25.0616 7.62855 24.6676C6.74834 24.2675 6.04972 23.6766 5.53267 22.8949C5.01563 22.1132 4.7571 21.1406 4.7571 19.9773H8.16406C8.17022 20.4882 8.28101 20.9283 8.49645 21.2976C8.71804 21.6669 9.02273 21.95 9.41051 22.147C9.7983 22.344 10.2446 22.4425 10.7493 22.4425C11.2971 22.4425 11.7618 22.3286 12.1435 22.1009C12.5251 21.867 12.8144 21.5223 13.0114 21.0668C13.2145 20.6113 13.3191 20.0511 13.3253 19.3864V6.09091ZM25.6976 25.277C24.3127 25.277 23.1124 24.9723 22.0968 24.3629C21.0812 23.7536 20.2933 22.901 19.7331 21.8054C19.1792 20.7098 18.9022 19.4295 18.9022 17.9645C18.9022 16.4995 19.1792 15.2161 19.7331 14.1143C20.2933 13.0125 21.0812 12.157 22.0968 11.5476C23.1124 10.9382 24.3127 10.6335 25.6976 10.6335C27.0826 10.6335 28.2829 10.9382 29.2985 11.5476C30.3141 12.157 31.0989 13.0125 31.6529 14.1143C32.213 15.2161 32.4931 16.4995 32.4931 17.9645C32.4931 19.4295 32.213 20.7098 31.6529 21.8054C31.0989 22.901 30.3141 23.7536 29.2985 24.3629C28.2829 24.9723 27.0826 25.277 25.6976 25.277ZM25.7161 22.5994C26.467 22.5994 27.0949 22.3932 27.5996 21.9808C28.1044 21.5623 28.4798 21.0021 28.726 20.3004C28.9784 19.5987 29.1046 18.817 29.1046 17.9553C29.1046 17.0874 28.9784 16.3026 28.726 15.6009C28.4798 14.893 28.1044 14.3298 27.5996 13.9112C27.0949 13.4927 26.467 13.2834 25.7161 13.2834C24.9467 13.2834 24.3065 13.4927 23.7956 13.9112C23.2909 14.3298 22.9124 14.893 22.66 15.6009C22.4138 16.3026 22.2907 17.0874 22.2907 17.9553C22.2907 18.817 22.4138 19.5987 22.66 20.3004C22.9124 21.0021 23.2909 21.5623 23.7956 21.9808C24.3065 22.3932 24.9467 22.5994 25.7161 22.5994ZM34.5499 25V10.8182H37.8922V25H34.5499ZM36.2303 8.8054C35.7009 8.8054 35.2455 8.62997 34.8638 8.27912C34.4822 7.92211 34.2914 7.49432 34.2914 6.99574C34.2914 6.491 34.4822 6.06321 34.8638 5.71236C35.2455 5.35535 35.7009 5.17685 36.2303 5.17685C36.7658 5.17685 37.2213 5.35535 37.5968 5.71236C37.9784 6.06321 38.1692 6.491 38.1692 6.99574C38.1692 7.49432 37.9784 7.92211 37.5968 8.27912C37.2213 8.62997 36.7658 8.8054 36.2303 8.8054ZM43.8915 16.6903V25H40.5492V10.8182H43.7438V13.228H43.91C44.2362 12.4339 44.7564 11.803 45.4704 11.3352C46.1905 10.8674 47.08 10.6335 48.1387 10.6335C49.1174 10.6335 49.9699 10.8428 50.6962 11.2614C51.4287 11.6799 51.995 12.2862 52.3951 13.0803C52.8013 13.8743 53.0014 14.8376 52.9952 15.9702V25H49.6529V16.4872C49.6529 15.5393 49.4067 14.7976 48.9143 14.2621C48.428 13.7266 47.754 13.4588 46.8922 13.4588C46.3075 13.4588 45.7874 13.5881 45.3319 13.8466C44.8825 14.099 44.5286 14.4652 44.2701 14.9453C44.0177 15.4254 43.8915 16.0071 43.8915 16.6903ZM73.3496 6.09091H76.7751V18.4446C76.7751 19.7988 76.455 20.9898 75.8148 22.0178C75.1808 23.0457 74.2883 23.849 73.1373 24.4276C71.9862 25 70.6413 25.2862 69.1025 25.2862C67.5575 25.2862 66.2095 25 65.0585 24.4276C63.9074 23.849 63.0149 23.0457 62.3809 22.0178C61.7469 20.9898 61.4299 19.7988 61.4299 18.4446V6.09091H64.8553V18.1584C64.8553 18.9463 65.0277 19.648 65.3724 20.2635C65.7232 20.879 66.2156 21.3622 66.8496 21.7131C67.4836 22.0578 68.2346 22.2301 69.1025 22.2301C69.9704 22.2301 70.7213 22.0578 71.3553 21.7131C71.9955 21.3622 72.4879 20.879 72.8326 20.2635C73.1773 19.648 73.3496 18.9463 73.3496 18.1584V6.09091ZM90.7793 14.5668L87.7325 14.8991C87.6463 14.5914 87.4955 14.3021 87.28 14.0312C87.0708 13.7604 86.7876 13.5419 86.4306 13.3757C86.0736 13.2095 85.6366 13.1264 85.1195 13.1264C84.424 13.1264 83.8392 13.2772 83.3653 13.5788C82.8975 13.8804 82.6666 14.2713 82.6728 14.7514C82.6666 15.1638 82.8175 15.4993 83.1252 15.7578C83.4391 16.0163 83.9562 16.2287 84.6764 16.3949L87.0954 16.9119C88.4372 17.2012 89.4344 17.6598 90.0869 18.2876C90.7455 18.9155 91.0779 19.7372 91.084 20.7528C91.0779 21.6454 90.8163 22.4332 90.2992 23.1165C89.7883 23.7936 89.0774 24.3229 88.1664 24.7045C87.2554 25.0862 86.209 25.277 85.0272 25.277C83.2914 25.277 81.8942 24.9138 80.8354 24.1875C79.7767 23.455 79.1458 22.4363 78.9427 21.1314L82.2019 20.8175C82.3497 21.4576 82.6636 21.9408 83.1437 22.267C83.6238 22.5933 84.2486 22.7564 85.018 22.7564C85.812 22.7564 86.4491 22.5933 86.9292 22.267C87.4155 21.9408 87.6586 21.5376 87.6586 21.0575C87.6586 20.6513 87.5016 20.3158 87.1877 20.0511C86.88 19.7865 86.3998 19.5833 85.7474 19.4418L83.3283 18.9339C81.968 18.6508 80.9616 18.1738 80.3092 17.5028C79.6567 16.8258 79.3336 15.9702 79.3397 14.9361C79.3336 14.062 79.5705 13.3049 80.0506 12.6648C80.5369 12.0185 81.2109 11.5199 82.0727 11.169C82.9406 10.812 83.9408 10.6335 85.0734 10.6335C86.7353 10.6335 88.0433 10.9875 88.9974 11.6953C89.9576 12.4032 90.5516 13.3603 90.7793 14.5668ZM97.1503 6.09091L96.8456 19.4418H93.8726L93.5771 6.09091H97.1503ZM95.3591 25.2031C94.7989 25.2031 94.3188 25.0062 93.9187 24.6122C93.5248 24.2183 93.3278 23.7382 93.3278 23.1719C93.3278 22.6179 93.5248 22.1439 93.9187 21.75C94.3188 21.3561 94.7989 21.1591 95.3591 21.1591C95.9069 21.1591 96.3809 21.3561 96.7809 21.75C97.1872 22.1439 97.3903 22.6179 97.3903 23.1719C97.3903 23.5473 97.2949 23.889 97.1041 24.1967C96.9194 24.5045 96.6732 24.7507 96.3655 24.9354C96.0639 25.1139 95.7284 25.2031 95.3591 25.2031ZM104.255 26.82H130.255V0.82H104.255V26.82Z" fill="#202124"/>
</g>
<defs>
<filter id="filter0_d_55_25435" x="0.757111" y="0.820068" width="133.498" height="34" filterUnits="userSpaceOnUse" color-interpolation-filters="sRGB">
<feFlood flood-opacity="0" result="BackgroundImageFix"/>
<feColorMatrix in="SourceAlpha" type="matrix" values="0 0 0 0 0 0 0 0 0 0 0 0 0 0 0 0 0 0 127 0" result="hardAlpha"/>
<feOffset dy="4"/>
<feGaussianBlur stdDeviation="2"/>
<feComposite in2="hardAlpha" operator="out"/>
<feColorMatrix type="matrix" values="0 0 0 0 0 0 0 0 0 0 0 0 0 0 0 0 0 0 0.25 0"/>
<feBlend mode="normal" in2="BackgroundImageFix" result="effect1_dropShadow_55_25435"/>
<feBlend mode="normal" in="SourceGraphic" in2="effect1_dropShadow_55_25435" result="shape"/>
</filter>
</defs>
</svg>
